<?xml version="1.0" encoding="utf-8"?>
<!-- Generator: Adobe Illustrator 26.0.2, SVG Export Plug-In . SVG Version: 6.00 Build 0)  -->
<svg version="1.1" id="Capa_1" xmlns="http://www.w3.org/2000/svg" xmlns:xlink="http://www.w3.org/1999/xlink" x="0px" y="0px"
	 viewBox="0 0 800 800" style="enable-background:new 0 0 800 800;" xml:space="preserve">
<style type="text/css">
	.st0{fill:#24292F;}
</style>
<g>
	<path class="st0" d="M626.6,0H173.5c-50.3,0-91.1,40.8-91.1,91.1v617.8c0,50.3,40.8,91.1,91.1,91.1h453.1
		c50.3,0,91.1-40.8,91.1-91.1V91.1C717.6,40.8,676.8,0,626.6,0z M167.7,307c0-21.3,17.3-38.6,38.6-38.6h13.5
		c-14.4-15.9-23.3-37-23.3-60.2c0-49.6,40.2-89.8,89.8-89.8c49.6,0,89.8,40.2,89.8,89.8c0,23.2-8.9,44.2-23.3,60.2h12.9
		c21.3,0,38.6,17.3,38.6,38.6v65.2c0,20.4-15.9,37-36,38.4H203.7c-20-1.4-36-17.9-36-38.4L167.7,307L167.7,307z M595.8,681.6H204.2
		c-20.1,0-36.4-16.3-36.4-36.4c0-20.1,16.3-36.4,36.4-36.4h391.7c20.1,0,36.4,16.3,36.4,36.4C632.3,665.3,615.9,681.6,595.8,681.6z
		 M595.8,545H204.2c-20.1,0-36.4-16.3-36.4-36.4s16.3-36.4,36.4-36.4h391.7c20.1,0,36.4,16.3,36.4,36.4S615.9,545,595.8,545z
		 M595.8,408.3H477.4c-20.1,0-36.4-16.3-36.4-36.4s16.3-36.4,36.4-36.4h118.4c20.1,0,36.4,16.3,36.4,36.4S615.9,408.3,595.8,408.3z"
		/>
</g>
</svg>
