<?xml version="1.0" encoding="utf-8"?>
<!-- Generator: Adobe Illustrator 26.0.2, SVG Export Plug-In . SVG Version: 6.00 Build 0)  -->
<svg version="1.1" id="图层_1" xmlns="http://www.w3.org/2000/svg" xmlns:xlink="http://www.w3.org/1999/xlink" x="0px" y="0px"
	 viewBox="0 0 376 409.6" style="enable-background:new 0 0 376 409.6;" xml:space="preserve">
<style type="text/css">
	.st0{fill:#FFFFFF;stroke:#000000;stroke-miterlimit:10;}
</style>
<g>
	<polygon points="0,0 376,0 375.8,375.5 68.6,375.5 68.6,409.6 51.6,398 34.6,409.6 34.6,375.5 0.2,375.5 	"/>
</g>
<g>
	<path class="st0" d="M278.7,96.1c0-1.9-1-3.7-2.7-4.6c-1.7-0.9-3.7-0.9-5.3,0L194,137V39.5c0-1.8-1-3.5-2.5-4.5
		c-1.6-1-3.5-1-5.2-0.2l-84.7,42.4c-1.8,0.9-2.9,2.7-2.9,4.7v100.6c0,1.3,0.5,2.6,1.4,3.6c-0.9,1-1.4,2.2-1.4,3.5v93.5
		c0,1.9,1,3.7,2.7,4.6c0.8,0.5,1.7,0.7,2.6,0.7c0.9,0,1.9-0.2,2.7-0.7l76.7-45.4V336c0,1.8,0.9,3.5,2.4,4.4c0.9,0.6,1.9,0.9,2.9,0.9
		c0.7,0,1.4-0.1,2.1-0.4l84.7-37.1c1.9-0.8,3.2-2.7,3.2-4.8V193.1c0-0.6-0.1-1.2-0.3-1.7c0.2-0.6,0.3-1.1,0.3-1.7V96.1z
		 M268.1,105.4v74.9l-63.3-37.4L268.1,105.4z M109.3,85.2l74.1-37.1v93.9l-74.1,32.4V85.2z M109.3,273.8v-74.9l63.3,37.4
		L109.3,273.8z M186.3,230.7c-0.4,0.2-0.8,0.5-1.2,0.8l-76.5-45.3l82.2-35.9c1-0.4,1.8-1.1,2.3-2l72.4,42.8L186.3,230.7z
		 M268.1,295.5L194,327.9v-89.2l74.1-37.1V295.5z"/>
</g>
</svg>
